PathFileType	4	(X/Y/Z)	S:\OneDrive - The University of Tokyo\ìåëÂéˆã∆\ÉoÉCÉÅÉJ\ë™íË\hirabayashi_2\Trimmed\Trimmed_BarR1Hirabayashi1.trc
DataRate	CameraRate	NumFrames	NumMarkers	Units	OrigDataRate	OrigDataStartFrame	OrigNumFrames
200.00	200.00	       9	12	mm	200.00	280	       373
Frame#	Time	BarR0			BarR50			BarR100			BarR130			BarR180			BarR230			BarL0			BarL50			BarL100			BarL130			BarL180			BarL230			
		X1	Y1	Z1	X2	Y2	Z2	X3	Y3	Z3	X4	Y4	Z4	X5	Y5	Z5	X6	Y6	Z6	X7	Y7	Z7	X8	Y8	Z8	X9	Y9	Z9	X10	Y10	Z10	X11	Y11	Z11	X12	Y12	Z12	

280	1.395	-578.08026	2752.55029	1664.29370	-605.92206	2303.73877	1643.89197	-639.91058	1850.83752	1630.53943	-662.58496	1349.30518	1630.57336	-691.21057	903.51788	1644.17346	-714.94458	456.35425	1663.70801	-1114.23413	2808.02466	1664.47290	-1141.08264	2356.22266	1667.47693	-1171.44275	1905.87549	1668.35120	-1199.02600	1403.97156	1668.80994	-1226.84290	952.50385	1667.92651	-1244.88562	506.20801	1667.26770	
281	1.400	-578.06641	2752.54858	1664.30054	-605.89722	2303.70996	1643.88074	-639.84375	1850.82458	1630.52979	-662.51398	1349.31372	1630.58057	-691.19073	903.52209	1644.16724	-714.94543	456.36951	1663.70667	-1114.19617	2808.04077	1664.48926	-1141.08838	2356.19751	1667.46765	-1171.47998	1905.85974	1668.35254	-1199.03406	1404.01807	1668.81909	-1226.85693	952.50366	1667.91028	-1244.88281	506.20871	1667.26782	
282	1.405	-578.09338	2752.55786	1664.30103	-605.87988	2303.70850	1643.88782	-639.84467	1850.81250	1630.52271	-662.50189	1349.30920	1630.57349	-691.16876	903.51929	1644.15308	-714.92804	456.35281	1663.70618	-1114.18274	2808.03271	1664.46240	-1141.11792	2356.18750	1667.45728	-1171.45801	1905.85632	1668.34448	-1199.04248	1403.97888	1668.82703	-1226.85559	952.50421	1667.90796	-1244.87268	506.17737	1667.27100	
283	1.410	-578.03735	2752.54395	1664.29675	-605.89795	2303.71606	1643.89111	-639.83496	1850.83789	1630.53235	-662.52612	1349.31165	1630.58386	-691.16376	903.53461	1644.15796	-714.94659	456.35721	1663.69641	-1114.25964	2808.01416	1664.48804	-1141.10657	2356.21045	1667.47852	-1171.43591	1905.87720	1668.35071	-1199.01965	1403.97705	1668.82898	-1226.86975	952.48376	1667.89856	-1244.85779	506.20010	1667.25989	
284	1.415	-578.05273	2752.58545	1664.30481	-605.89227	2303.74048	1643.89783	-639.84393	1850.83801	1630.54114	-662.51404	1349.33679	1630.60059	-691.18524	903.54041	1644.17798	-714.94336	456.35730	1663.71716	-1114.21838	2808.02246	1664.47461	-1141.09741	2356.20532	1667.47119	-1171.45227	1905.89307	1668.36169	-1199.00049	1404.05066	1668.83264	-1226.84326	952.48853	1667.92578	-1244.86279	506.19586	1667.27893	
285	1.420	-578.07190	2752.58423	1664.30200	-605.89838	2303.73096	1643.91089	-639.85718	1850.87219	1630.55811	-662.53552	1349.34302	1630.61243	-691.27972	903.49719	1643.97131	-714.96246	456.34839	1663.71741	-1114.20447	2808.03320	1664.47229	-1141.10205	2356.24097	1667.47351	-1171.47266	1905.89539	1668.36682	-1199.00317	1404.04761	1668.83057	-1226.84009	952.49780	1667.92139	-1244.86792	506.21185	1667.27783	
286	1.425	-578.06995	2752.58301	1664.30176	-605.88965	2303.75098	1643.91675	-639.87396	1850.86914	1630.56824	-662.55328	1349.33484	1630.63245	-691.21857	903.56561	1644.21350	-714.95441	456.38855	1663.70471	-1114.22302	2808.05249	1664.47131	-1141.09680	2356.24756	1667.47864	-1171.45361	1905.86902	1668.37000	-1198.98938	1404.03589	1668.84058	-1226.85840	952.49872	1667.92944	-1244.88635	506.22815	1667.27771	
287	1.430	-578.04492	2752.58911	1664.30103	-605.91284	2303.73438	1643.94775	-639.87213	1850.87805	1630.61755	-662.58936	1349.36072	1630.67407	-691.23358	903.52759	1644.22131	-714.95917	456.39764	1663.70764	-1114.23438	2808.03101	1664.46606	-1141.11963	2356.22803	1667.49207	-1171.47913	1905.90430	1668.36523	-1199.00024	1404.03162	1668.84705	-1226.82654	952.53650	1667.91663	-1244.86389	506.24005	1667.27637	
288	1.435	-578.09393	2752.63599	1664.31421	-605.90167	2303.75708	1643.96191	-639.88928	1850.88831	1630.62061	-662.59998	1349.35706	1630.69263	-691.31696	903.50543	1644.02734	-714.96790	456.41177	1663.71313	-1114.20935	2808.05713	1664.47974	-1141.08533	2356.26611	1667.47058	-1171.44690	1905.89709	1668.35486	-1198.98596	1404.05676	1668.83594	-1226.83301	952.53613	1667.91650	-1244.86438	506.24493	1667.27637	
